<?xml version="1.0" encoding="UTF-8" standalone="no"?><!DOCTYPE svg PUBLIC "-//W3C//DTD SVG 1.1//EN" "http://www.w3.org/Graphics/SVG/1.1/DTD/svg11.dtd"><svg width="100%" height="100%" viewBox="0 0 432 288" version="1.1" xmlns="http://www.w3.org/2000/svg" xmlns:xlink="http://www.w3.org/1999/xlink" xml:space="preserve" xmlns:serif="http://www.serif.com/" style="fill-rule:evenodd;clip-rule:evenodd;stroke-linejoin:round;stroke-miterlimit:2;"><path d="M59.067,254.34l146.118,-0.332c-0,0 9.168,2.118 9.129,12.123c-0.034,8.823 -9.491,10.591 -9.491,10.591l-145.355,0.179c0,0 -9.396,-1.269 -9.425,-11.603c-0.031,-10.99 9.025,-10.959 9.025,-10.959Z" style="fill:#788e6e;"/><path d="M230.617,187.271l143.118,0.167c0,0 8.089,2.783 8.193,11.027c0.106,8.404 -8.65,10.782 -8.65,10.782l-141.858,0.176c0,0 -8.947,-1.253 -8.848,-10.855c0.101,-9.829 8.046,-11.298 8.046,-11.298Z" style="fill:#788e6e;"/><path d="M245.997,171.683l111.02,0.186c0,0 -5.323,-17.759 1.842,-36.328c8.319,-21.558 18.247,-21.645 17.955,-52.752c-0.35,-37.363 -28.188,-75.689 -77.442,-75.414c-47.074,0.263 -77.464,35.12 -78.199,73.067c-0.697,35.997 16.453,39.172 22.9,57.221c6.446,18.049 1.924,34.02 1.924,34.02Zm2.682,-80.263c12.938,1.6 13.506,-23.453 27.368,-36.668c16.522,-15.751 37.075,-13.399 33.207,-23.713c-3.868,-10.314 -26.135,-7.028 -47.12,11.347c-16.835,14.741 -24.996,47.608 -13.455,49.035Z" style="fill:#788e6e;"/><path d="M64.9,238.318l-0.507,-74.332c0,0 -0.983,-15.367 20.396,-34.102c16.588,-14.537 35.855,-15.965 35.855,-15.965l0.613,-16.266c0,0 -8.956,-22.184 12.636,-22.192c21.768,-0.009 12.905,22.318 12.905,22.318l-0.063,16.172c0,0 19.229,2.132 34.046,18.913c15.852,17.953 17.204,31.067 17.204,31.067l0.075,74.419l-133.161,-0.031Zm23.882,-48.271c14.097,2.983 5.489,-13.577 19.026,-30.337c13.537,-16.76 26.156,-12.269 22.793,-22.172c-4.074,-11.997 -23.034,-3.305 -36.691,12.058c-11.171,12.567 -15.194,38.32 -5.128,40.45Z" style="fill:#788e6e;"/></svg>