<?xml version="1.0" encoding="UTF-8" standalone="no"?><!DOCTYPE svg PUBLIC "-//W3C//DTD SVG 1.1//EN" "http://www.w3.org/Graphics/SVG/1.1/DTD/svg11.dtd"><svg width="100%" height="100%" viewBox="0 0 350 288" version="1.1" xmlns="http://www.w3.org/2000/svg" xmlns:xlink="http://www.w3.org/1999/xlink" xml:space="preserve" xmlns:serif="http://www.serif.com/" style="fill-rule:evenodd;clip-rule:evenodd;stroke-linecap:round;stroke-linejoin:round;stroke-miterlimit:1.5;"><g><path d="M179.802,190.171c0.775,-0.022 1.549,-0.061 2.324,-0.087c56.971,-1.848 82.107,-20.839 82.107,-20.839c0,0 44.089,7.722 44.604,47.581c0.477,36.813 -68.339,57.22 -129.035,58.401c-52.478,1.021 -138.341,-14.32 -138.641,-57.122c-0.221,-31.611 46.939,-45.386 46.939,-45.386c0,0 28.86,19.276 91.702,17.453Zm64.423,7.341c14.745,-9.042 51.752,7.434 36.132,19.479c-16.051,12.377 -50.877,-10.437 -36.132,-19.479Z" style="fill:#788e6e;stroke:#231f20;stroke-width:0.26px;"/><path d="M179.802,99.912c44.828,-0.26 64.423,-15.895 64.423,-15.895c0,0 36.45,11.788 36.129,30.524c-0.506,29.688 -49.533,55.236 -100.552,54.706c-46.836,-0.487 -103.164,-10.016 -104.997,-48.427c-1.425,-29.876 31.825,-33.33 31.825,-33.33c0,0 24.252,12.706 73.172,12.423Zm31.176,11.831c1.229,10.85 31.207,14.299 33.247,1.254c1.494,-9.557 -34.476,-12.104 -33.247,-1.254Z" style="fill:#788e6e;stroke:#231f20;stroke-width:0.26px;"/><path d="M169.833,6.347c26.433,-0.208 74.123,6.467 74.391,35.18c0.249,26.713 -39.659,37.032 -69.223,36.514c-26.43,-0.463 -81.391,-6.247 -79.257,-36.924c1.845,-26.517 41.773,-34.517 74.09,-34.77Zm21.337,17.65c-7.709,9.841 21.459,19.398 24.841,8.246c2.219,-7.317 -20.27,-14.081 -24.841,-8.246Z" style="fill:#788e6e;stroke:#231f20;stroke-width:0.26px;"/></g></svg>