<?xml version="1.0" encoding="UTF-8" standalone="no"?><!DOCTYPE svg PUBLIC "-//W3C//DTD SVG 1.1//EN" "http://www.w3.org/Graphics/SVG/1.1/DTD/svg11.dtd"><svg width="100%" height="100%" viewBox="0 0 288 288" version="1.1" xmlns="http://www.w3.org/2000/svg" xmlns:xlink="http://www.w3.org/1999/xlink" xml:space="preserve" xmlns:serif="http://www.serif.com/" style="fill-rule:evenodd;clip-rule:evenodd;stroke-linejoin:round;stroke-miterlimit:2;"><path d="M3.048,144.285l281.235,-0.009l-0.091,16.172l-24.742,0.041l-0.356,76.753l-13.107,0.026l-0.082,-20.363l-204.926,0.477l0.129,20.062l-13.008,-0.06l0.056,-76.716l-25.26,-0.254l0.151,-16.129Z" style="fill:#788e6e;"/><path d="M277.622,121.755l-266.535,0.032c0,0 -8.506,-0.161 -8.59,8.423c-0.084,8.641 9.197,8.176 9.197,8.176l265.932,-0.07c0,0 7.028,-0.458 7.098,-8.757c0.056,-6.636 -7.101,-7.803 -7.101,-7.803Z" style="fill:#788e6e;"/><path d="M86.259,107.363c0,0 13.121,-6.858 12.793,-21.055c-0.305,-13.226 -9.153,-15.569 -12.501,-25.105c-3.224,-9.186 3.439,-21.27 3.439,-21.27c0,0 -11.896,7.451 -12.527,17.857c-0.8,13.189 6.13,16.791 10.927,26.386c4.797,9.595 -2.132,23.187 -2.132,23.187" style="fill:#788e6e;"/><path d="M123.785,107.15c0,0 13.121,-6.858 12.793,-21.055c-0.305,-13.226 -9.153,-15.569 -12.501,-25.105c-3.224,-9.186 3.439,-21.27 3.439,-21.27c0,0 -11.896,7.451 -12.527,17.857c-0.8,13.189 6.13,16.791 10.927,26.386c4.797,9.595 -2.132,23.187 -2.132,23.187" style="fill:#788e6e;"/><path d="M161.525,107.15c0,0 13.121,-6.858 12.793,-21.055c-0.305,-13.226 -9.153,-15.569 -12.501,-25.105c-3.224,-9.186 3.439,-21.27 3.439,-21.27c0,0 -11.896,7.451 -12.527,17.857c-0.8,13.189 6.13,16.791 10.927,26.386c4.797,9.595 -2.132,23.187 -2.132,23.187" style="fill:#788e6e;"/><path d="M199.477,106.936c0,0 13.121,-6.858 12.793,-21.055c-0.305,-13.226 -9.153,-15.569 -12.501,-25.105c-3.224,-9.186 3.439,-21.27 3.439,-21.27c0,0 -11.896,7.451 -12.527,17.857c-0.8,13.189 6.13,16.791 10.927,26.386c4.797,9.595 -2.132,23.187 -2.132,23.187" style="fill:#788e6e;"/></svg>