<?xml version="1.0" encoding="UTF-8" standalone="no"?><!DOCTYPE svg PUBLIC "-//W3C//DTD SVG 1.1//EN" "http://www.w3.org/Graphics/SVG/1.1/DTD/svg11.dtd"><svg width="100%" height="100%" viewBox="0 0 288 288" version="1.1" xmlns="http://www.w3.org/2000/svg" xmlns:xlink="http://www.w3.org/1999/xlink" xml:space="preserve" xmlns:serif="http://www.serif.com/" style="fill-rule:evenodd;clip-rule:evenodd;stroke-linejoin:round;stroke-miterlimit:2;"><path d="M94.318,50.175l101.437,-36.569c0,0 14.678,-4.567 29.522,5.282c8.92,5.918 20.215,16.315 22.462,40.542c2.315,24.958 -15.102,41.53 -15.102,41.53l-109.745,56.213c0,0 -14.679,6.143 -32.795,1.191c-19.039,-5.205 -39.53,-31.3 -36.629,-59.005c3.124,-29.839 23.244,-45.303 44.42,-41.333c21.819,4.09 39.256,27.214 36.452,53.208c-2.775,25.724 -32.634,42.392 -56.255,16.839c-13.221,-14.302 -9.547,-41.855 5.079,-48.467c14.206,-6.422 25.958,4.679 28.841,8.319c7.806,9.858 7.358,32.334 -8.597,33c-14.066,0.587 -17.9,-19.155 -13.158,-21.367c8.371,-3.904 9.063,7.357 13.411,6.178c3.459,-0.938 -0.676,-15.307 -13.317,-13.752c-7.54,0.928 -13.039,16.756 -2.252,28.841c13.779,15.436 37.364,2.696 35.423,-16.438c-1.941,-19.135 -10.731,-29.382 -25.653,-32.546c-17.082,-3.622 -41.099,8.938 -31.891,46.312c3.196,12.971 15.79,25.323 28.917,28.517c18.757,4.564 39.241,-6.028 44.294,-27.13c5.014,-20.941 0.411,-42.643 -14.975,-56.018c-17.473,-15.189 -29.89,-13.348 -29.89,-13.348Z" style="fill:#788e6e;"/><path d="M132.588,158.605l104.487,-51.821c0,0 15.259,-1.847 28.968,10.274c8.019,7.091 15.337,18.028 17.471,33.055c3.524,24.816 -11.774,43.748 -11.774,43.748l-110.576,71.743c0,0 -14.679,6.143 -32.795,1.191c-19.039,-5.205 -39.53,-31.3 -36.629,-59.005c3.124,-29.839 23.244,-45.303 44.42,-41.333c21.819,4.09 39.256,27.214 36.452,53.208c-2.775,25.724 -32.634,42.392 -56.255,16.839c-13.221,-14.302 -9.547,-41.855 5.079,-48.467c14.206,-6.422 25.958,4.679 28.841,8.319c7.806,9.858 7.358,32.334 -8.597,33c-14.066,0.587 -17.9,-19.155 -13.158,-21.367c8.371,-3.904 9.063,7.357 13.411,6.178c3.459,-0.938 -0.676,-15.307 -13.317,-13.752c-7.54,0.928 -13.039,16.756 -2.252,28.841c13.779,15.436 37.364,2.696 35.423,-16.438c-1.941,-19.135 -10.731,-29.382 -25.653,-32.546c-17.082,-3.622 -41.099,8.938 -31.891,46.312c3.196,12.971 15.79,25.323 28.917,28.517c18.757,4.564 39.241,-6.028 44.294,-27.13c5.014,-20.941 0.411,-42.643 -14.975,-56.018c-17.473,-15.189 -29.89,-13.348 -29.89,-13.348Z" style="fill:#788e6e;"/><path d="M84.724,215.478c0.165,9.761 0.998,10.936 3.037,18.217c-12.789,8.978 -26.846,17.878 -49.244,11.192c-18.913,-5.646 -39.53,-31.3 -36.629,-59.005c3.124,-29.839 23.244,-45.303 44.42,-41.333c21.819,4.09 39.256,27.214 36.452,53.208c-2.775,25.724 -32.634,42.392 -56.255,16.839c-13.221,-14.302 -9.547,-41.855 5.079,-48.467c14.206,-6.422 25.958,4.679 28.841,8.319c7.806,9.858 7.358,32.334 -8.597,33c-14.066,0.587 -17.9,-19.155 -13.158,-21.367c8.371,-3.904 9.063,7.357 13.411,6.178c3.459,-0.938 -0.676,-15.307 -13.317,-13.752c-7.54,0.928 -13.039,16.756 -2.252,28.841c13.779,15.436 37.364,2.696 35.423,-16.438c-1.941,-19.135 -10.731,-29.382 -25.653,-32.546c-17.082,-3.622 -41.099,8.938 -31.891,46.312c3.196,12.971 15.957,24.7 28.917,28.517c19.135,5.636 32.829,-4.106 41.415,-17.715Z" style="fill:#788e6e;"/><path d="M42.626,136.21l10.109,-3.635l4.43,6.702l-14.539,-3.067Z" style="fill:#788e6e;"/><path d="M82.268,162.676c4.518,7.95 6.689,16.623 7.27,25.784c2.639,-8.493 7.205,-15.739 14.994,-20.9c-7.582,0.144 -14.984,-1.696 -22.263,-4.884Z" style="fill:#788e6e;"/></svg>