<?xml version="1.0" encoding="UTF-8" standalone="no"?><!DOCTYPE svg PUBLIC "-//W3C//DTD SVG 1.1//EN" "http://www.w3.org/Graphics/SVG/1.1/DTD/svg11.dtd"><svg width="100%" height="100%" viewBox="0 0 288 288" version="1.1" xmlns="http://www.w3.org/2000/svg" xmlns:xlink="http://www.w3.org/1999/xlink" xml:space="preserve" xmlns:serif="http://www.serif.com/" style="fill-rule:evenodd;clip-rule:evenodd;stroke-linejoin:round;stroke-miterlimit:2;"><path d="M50.99,116.953l53.422,0.261c0,0 -1.961,9.869 2.38,13.92c4.34,4.051 7.216,3.832 13.114,10.737c5.312,6.22 4.762,11.513 4.762,11.513l0.537,119.347c0,0 0.334,2.916 -2.754,6.52c-2.427,2.833 -6.174,3.766 -6.174,3.766l-74.366,0.868c0,0 -3.286,-0.029 -7.496,-3.731c-4.007,-3.523 -4.164,-7.304 -4.164,-7.304l0.085,-118.02c0,0 -0.177,-7.698 6.478,-14.353c6.655,-6.655 7.019,-4.063 12.619,-10.156c2.492,-2.711 1.556,-13.369 1.556,-13.369Z" style="fill:#788e6e;"/><path d="M43.688,111.057l-0.062,-38.114c0,0 -0.161,-2.089 1.993,-4.205c2.245,-2.206 4.144,-1.946 4.144,-1.946l54.171,-0.019c0,0 2.441,-0.206 4.434,1.568c2.343,2.086 2.24,3.659 2.24,3.659l-0.092,39.077l-66.828,-0.02Zm25.784,-44.272l-0.286,-36.131c0,0 1.554,-7.067 8.149,-7.249c7.865,-0.216 8.908,7.063 8.908,7.063l0.079,36.31l-16.851,0.006Z" style="fill:#788e6e;"/><path d="M193.8,207.322l-18.386,-0.19c0,0 -3.746,1.841 -2.497,4.963c1.249,3.122 6.076,4.373 5.203,9.813c-1.109,6.911 -8.163,8.186 -14.36,14.152c-8.995,8.661 -9.196,16.774 -6.939,24.073c2.718,8.79 9.4,13.086 13.76,16.222c4.422,3.18 4.834,7.697 4.834,7.697l62.434,-0.126c0,0 -0,-2.914 2.497,-5.619c2.497,-2.705 9.079,-5.307 13.681,-13.65c3.091,-5.602 5.436,-16.118 0.337,-23.326c-7.744,-10.949 -17.398,-12.593 -18.526,-17.672c-1.866,-8.404 2.849,-7.37 4.514,-11.948c1.665,-4.578 -3.032,-4.578 -3.032,-4.578l-18.059,0.054l3.512,-18.918c0,0 1.047,-0.759 1.755,-1.739c0.464,-0.643 0.832,-2.497 0.832,-2.497l23.135,-112.678c0,0 0.916,-3.701 -3.316,-4.94c-3.671,-1.075 -5.435,3.271 -5.435,3.271l-22.917,112.266c0,0 -0.103,1.598 0.198,2.709c0.414,1.525 0.732,2.162 0.732,2.162l-3.98,20.373l-4.65,-0.061l0.208,-29.136c0,0 0.52,-0.361 1.131,-1.588c0.489,-0.982 0.447,-2.437 0.447,-2.437l-0.175,-117.029c0,0 -0.17,-3.982 -4.124,-3.774c-3.954,0.208 -3.938,3.497 -3.938,3.497l-0.624,117.376c0,0 -0.069,1.436 0.879,2.783c0.782,1.11 0.873,1.285 0.873,1.285l0.408,28.875l-4.794,0.061l-3.949,-19.604c0,0 0.233,-0.144 0.611,-2.071c0.43,-2.189 0.144,-3.212 0.144,-3.212l-22.367,-112.183c0,0 -1.808,-4.057 -5.138,-3.641c-3.33,0.416 -3.756,5.267 -3.756,5.267l22.729,113.262l1.041,2.081l1.766,1.876l3.301,18.501Z" style="fill:#788e6e;"/><path d="M248.254,58.747c0,0 -3.245,-5.478 -2.621,-11.929c0.624,-6.451 5.944,-9.163 5.32,-17.488c-0.624,-8.325 -9.775,-12.414 -9.775,-12.414c0,0 3.934,4.764 3.934,11.84c0,7.076 -7.035,9.987 -5.821,19.807c0.697,5.637 8.963,10.183 8.963,10.183Z" style="fill:#788e6e;"/><path d="M206.461,45.39c0,0 8.086,-8.139 6.838,-14.382c-1.249,-6.243 -4.294,-6.43 -6.875,-12.011c-3.861,-8.347 0,-15.192 0,-15.192c0,0 -7.747,4.839 -7.284,12.695c0.453,7.681 5.052,10.531 7.55,15.942c2.497,5.411 -0.228,12.948 -0.228,12.948Z" style="fill:#788e6e;"/><path d="M169.908,58.218c0,0 9.016,-5.762 6.792,-14.42c-1.873,-7.292 -3.841,-6.469 -6.963,-13.545c-3.122,-7.076 0.266,-13.337 0.266,-13.337c0,0 -8.047,4.967 -6.83,13.076c1.115,7.429 4.039,7.808 7.266,14.869c1.975,4.32 -0.531,13.357 -0.531,13.357Z" style="fill:#788e6e;"/></svg>