<?xml version="1.0" encoding="UTF-8" standalone="no"?><!DOCTYPE svg PUBLIC "-//W3C//DTD SVG 1.1//EN" "http://www.w3.org/Graphics/SVG/1.1/DTD/svg11.dtd"><svg width="100%" height="100%" viewBox="0 0 922 916" version="1.1" xmlns="http://www.w3.org/2000/svg" xmlns:xlink="http://www.w3.org/1999/xlink" xml:space="preserve" xmlns:serif="http://www.serif.com/" style="fill-rule:evenodd;clip-rule:evenodd;stroke-linejoin:round;stroke-miterlimit:2;"><rect id="Artboard1" x="-0" y="0" width="921.129" height="915.96" style="fill:none;"/><g><path d="M393.109,4.189c-62.917,9.167 -144.583,42.083 -197.917,80c-87.083,61.667 -154.167,159.583 -180.833,265c-13.333,52.083 -13.333,165.417 0,217.5c33.333,130.833 121.25,240.417 242.083,301.25c130.833,66.25 290.417,63.75 420.833,-6.25c102.917,-55 180.417,-146.667 217.5,-257.083c62.917,-188.333 0,-392.917 -157.917,-511.667c-43.333,-32.083 -77.5,-50.833 -127.5,-68.333c-63.75,-22.083 -148.75,-30.417 -216.25,-20.417Zm145.455,163.955c3.025,44.467 -20.99,85.459 -76.546,85.713c-57.265,0.262 -76.26,-51.893 -74.678,-85.851c1.144,-24.546 36.134,-66.716 78.692,-66.716c27.301,0 69.933,28.665 72.531,66.854Zm48.72,204.555c83.51,85.919 125.266,111.615 192.716,119.645c0,0 27.316,0.997 34.141,8.224c6.825,7.227 6.811,35.138 6.811,35.138c0,37.74 -0.803,39.346 -21.681,39.346c-69.86,-0.803 -163.809,-42.558 -220.821,-97.964l-39.346,-38.543l2.409,48.982l2.409,48.179l80.298,32.119c44.164,18.469 88.328,40.149 98.767,49.785c24.893,22.484 24.09,69.057 -0.803,92.343c-17.666,16.863 -26.498,17.666 -180.671,20.075l-162.203,1.606l0,-20.878c0,-11.242 8.03,-28.104 18.469,-37.74c15.257,-14.454 28.907,-17.666 97.964,-19.272c73.875,-2.409 80.298,-4.015 80.298,-18.469c0,-14.454 -6.424,-16.06 -74.678,-18.469c-54.603,-1.606 -81.101,0.803 -100.373,10.439c-31.316,14.454 -53.8,49.785 -53.8,82.707l0,24.893l-57.815,-4.015c-32.119,-2.409 -66.648,-8.03 -76.283,-12.848c-24.09,-12.045 -36.134,-48.179 -24.893,-78.692c8.833,-27.301 25.695,-37.74 125.266,-76.283l69.86,-26.498l2.409,-51.391l2.409,-50.588l-36.937,36.937c-58.618,58.618 -154.976,103.585 -224.836,103.585c-23.287,0 -24.09,-0.803 -24.09,-40.149c0,-39.346 0.803,-40.149 24.09,-40.149c69.86,0 146.143,-43.361 209.579,-118.842c57.815,-69.86 77.086,-81.904 130.886,-81.904c0,0 33.815,-1.946 45.915,5.96c20.075,13.115 74.532,72.733 74.532,72.733Z" style="fill:#7b9169;fill-rule:nonzero;"/></g></svg>