<?xml version="1.0" encoding="UTF-8" standalone="no"?><!DOCTYPE svg PUBLIC "-//W3C//DTD SVG 1.1//EN" "http://www.w3.org/Graphics/SVG/1.1/DTD/svg11.dtd"><svg width="100%" height="100%" viewBox="0 0 567 567" version="1.1" xmlns="http://www.w3.org/2000/svg" xmlns:xlink="http://www.w3.org/1999/xlink" xml:space="preserve" xmlns:serif="http://www.serif.com/" style="fill-rule:evenodd;clip-rule:evenodd;stroke-linejoin:round;stroke-miterlimit:2;"><g id="Layer-1" serif:id="Layer 1"><path id="path5" d="M419.34,496.012c-35.019,16.514 -86.319,9.561 -86.319,9.561c0,0 13.598,46.407 105.158,20.485c-5.489,-14.868 -9.145,-21.034 -18.839,-30.046Z" style="fill:#fff;fill-rule:nonzero;"/><path id="path4" d="M146.212,492.6c42.683,20.484 84.716,12.135 84.716,12.135c0,0 -21.142,42.635 -101.386,18.771c5.489,-14.868 6.975,-21.894 16.67,-30.906Z" style="fill:#fff;fill-rule:nonzero;"/><path id="path3" d="M239.604,503.515c30.635,-4.137 38.36,-15.753 44.076,-18.978c8.717,6.15 15.816,15.826 40.549,19.706c-2.91,35.16 -18.488,21.079 -42.434,54.073c-22.976,-32.718 -41.305,-22.293 -42.191,-54.8Z" style="fill:#fff;fill-rule:nonzero;"/><path id="path63" d="M428.321,491.88c57.689,-15.447 83.1,-35.497 107.032,-63.701c-23.172,-13.926 -29.519,-14.72 -55.621,-16.615c-11.259,8.984 -21.711,13.831 -29.308,18.85c6.144,32.104 -6.564,49.27 -22.104,61.466Z" style="fill:#fff;fill-rule:nonzero;"/><path id="path63-8" d="M141.19,489.934c-57.689,-15.447 -85.35,-33.622 -109.282,-61.826c23.172,-13.926 26.138,-11.945 52.24,-13.84c14.946,11.299 22.604,16.142 33.178,21.437c-4.644,25.166 8.324,42.034 23.864,54.229Z" style="fill:#fff;fill-rule:nonzero;"/><path id="path64" d="M447.135,422.618c19.604,-12.143 67.561,-40.839 72.705,-72.731c-18.971,-7.176 -32.536,-7.569 -56.012,-3.639c-15.037,29.874 -26.973,42.964 -40.309,56.816c14.527,5.387 17.521,10.094 23.615,19.553Z" style="fill:#fff;fill-rule:nonzero;"/><path id="path64-1" d="M454.498,345.376c9.616,-17.69 13.888,-49.552 10.288,-62.24c-22.976,1.372 -35.587,11.798 -47.402,24.018c5.33,22.165 12.724,75.736 -14.668,87.782c5.257,0.918 8.093,2.759 12.985,4.271c14.546,-14.325 29.181,-36.14 38.797,-53.831Z" style="fill:#fff;fill-rule:nonzero;"/><path id="path64-8" d="M119.575,426.241c-19.604,-12.143 -68.887,-42.033 -74.031,-73.924c18.971,-7.176 31.608,-7.436 55.084,-3.506c15.037,29.874 26.682,41.425 40.018,55.278c-10.913,6.665 -14.976,12.694 -21.071,22.153Z" style="fill:#fff;fill-rule:nonzero;"/><path id="path64-1-5" d="M110.887,347.806c-9.616,-17.69 -13.888,-49.552 -10.288,-62.24c22.976,1.372 34.128,11.533 45.944,23.753c-2.665,11.082 -6.237,32.276 -4.532,49.912c1.705,17.636 5.95,24.421 18.802,35.881c-5.023,1.481 -7.485,2.274 -12.19,4.536c-14.546,-14.325 -28.12,-34.152 -37.736,-51.842Z" style="fill:#fff;fill-rule:nonzero;"/><path id="path1-4" d="M281.908,10.061c-7.384,0 -10.711,1.637 -14.492,7.132c-1.602,2.328 -3.98,4.501 -5.284,4.828c-3.202,0.804 -8.048,5.005 -9.896,8.58c-0.842,1.629 -1.487,5.166 -1.453,7.98l0.062,5.054l-5.751,2.098c-12.099,4.411 -24.859,14.987 -32.6,27.019c-8.204,12.752 -11.614,33.623 -8.246,50.465c0.428,2.142 0.195,2.75 -1.058,2.75c-0.884,0 -3.362,0.895 -5.506,1.989c-7.931,4.046 -8.29,10.919 -1.666,31.805c2.104,6.634 4.426,16.06 5.159,20.946c1.455,9.695 2.811,13.059 6.741,16.731c1.985,1.855 3.618,2.41 7.094,2.414c2.484,0.003 5.384,-0.303 6.447,-0.68c1.62,-0.574 2.476,0.263 5.298,5.181c1.852,3.226 5.204,7.839 7.45,10.251c2.246,2.412 3.852,4.763 3.567,5.224c-1.261,2.04 -12.671,6.734 -26.464,10.887c-23.119,6.961 -34.912,14.84 -43.386,28.986c-7.08,11.82 -14.069,45.656 -16.666,80.692c-0.99,13.359 -0.353,15.684 0.586,22.554c2.145,15.689 10.507,23.238 19.516,27.683c4.878,2.407 16.352,2.494 26.968,0.242c10.899,2.544 13.682,2.201 18.932,3.195c4.666,-0.62 32.119,-9.465 43.124,-15.284c11.004,-5.819 31.431,-22.14 34.703,-22.781c3.272,-0.641 5.192,0.002 3.711,3.99c-1.481,3.988 -31.831,30.842 -69.107,37.759c15.018,4.733 22.754,7.399 35.646,8.314c28.328,-5.497 55.677,-32.562 58.668,-33.767c2.992,-1.205 5.546,0.292 5.606,3.185c0.06,2.893 -26.658,25.986 -44.627,31.761c11.846,-0.52 17.339,-1.054 26.339,-3.201c9,-2.147 36.141,-11.801 58.667,-15.208c24.675,1.198 29.574,-0.014 36.332,-9.49c7.977,-11.185 8.721,-33.918 1.957,-73.726c-6.574,-38.689 -14.269,-54.842 -31.226,-65.552c-5.048,-3.188 -27.066,-11.683 -39.207,-15.126c-2.727,-0.773 -5.548,-3.02 -6.851,-5.455c-1.35,-2.522 11.243,-20.724 14.019,-20.263c12.028,1.999 16.25,-2.021 18.593,-17.707c0.713,-4.774 3.008,-14.77 5.101,-22.214c5.634,-20.047 5.657,-24.091 0.161,-29.587c-2.26,-2.26 -4.666,-3.75 -6.054,-3.75l-2.304,0l-0.032,-15.696c-0.03,-14.392 -0.248,-16.338 -2.615,-23.423c-1.42,-4.25 -4.223,-10.544 -6.229,-13.988c-7.011,-12.038 -21.796,-24.113 -33.86,-27.652c-5.026,-1.474 -5.091,-1.541 -4.509,-4.645c1.373,-7.316 -2.983,-14.587 -10.846,-18.103c-2.374,-1.062 -4.88,-3.169 -6.086,-5.121c-3.171,-5.131 -7.427,-7.279 -14.429,-7.279l0,-0Zm-0.098,8.931c2.466,0.062 5.053,0.85 5.537,2.309c0.2,0.604 -1.025,1.581 -2.722,2.172c-1.697,0.592 -3.13,1.047 -3.183,1.011c-0.054,-0.036 -1.075,-0.537 -2.271,-1.113c-1.195,-0.576 -2.174,-1.625 -2.174,-2.331c0,-1.446 2.346,-2.11 4.812,-2.048l0,0Zm-13.1,10.752c4.333,0.136 10.22,4.38 10.22,7.928c0,1.227 -1.285,3.241 -2.972,4.661c-4.594,3.866 -11.768,3.063 -14.865,-1.664c-2.416,-3.687 0.552,-9.099 5.878,-10.718c0.534,-0.162 1.12,-0.226 1.739,-0.207l0,-0Zm25.594,0.469c2.406,0.054 4.947,0.985 6.917,2.955c4.075,4.075 3.673,7.779 -1.11,10.252c-6.123,3.166 -13.453,-0.6 -13.453,-6.911c0,-4.037 3.637,-6.385 7.646,-6.296Zm-12.27,21.769c1.023,0.035 2.096,0.222 3.186,0.582c6.575,2.17 8.15,7.898 3.294,11.984c-3.434,2.889 -7.172,3.197 -10.576,0.867c-3.252,-2.225 -3.806,-3.191 -3.823,-6.668c-0.021,-4.177 3.485,-6.914 7.919,-6.765Zm-25.355,0.482c2.242,-0.008 4.656,0.857 6.724,2.597c3.64,3.062 3.846,6.371 0.601,9.617c-1.744,1.744 -3.415,2.37 -6.322,2.37c-7.336,0 -10.976,-6.496 -6.691,-11.943c1.378,-1.752 3.448,-2.633 5.689,-2.641Zm50.145,0.097c3.946,0 8.81,4.22 8.81,7.644c0,1.514 -0.955,3.542 -2.235,4.745c-4.752,4.464 -14.184,1.288 -14.184,-4.775c0,-3.792 3.82,-7.613 7.61,-7.613Zm-68.959,6.476l0.91,3.173c0.84,2.928 0.637,3.423 -2.634,6.42c-3.483,3.192 -4.297,3.466 -7.677,2.583c-2.629,-0.687 -2.099,-1.665 3.855,-7.107l5.546,-5.068Zm88.315,0.284c1.093,0 11.669,9.577 11.669,10.567c0,0.393 -1.106,1.217 -2.459,1.834c-1.353,0.617 -2.55,1.119 -2.657,1.116c-0.108,-0.003 -1.825,-1.501 -3.817,-3.331c-2.881,-2.646 -3.623,-4.028 -3.623,-6.756c0,-1.886 0.399,-3.431 0.888,-3.431Zm-56.723,14.331c2.295,0.04 4.706,1.037 6.65,2.981c3.641,3.641 3.561,5.741 -0.362,9.543c-3.777,3.661 -6.017,3.851 -10.436,0.883c-4.106,-2.758 -4.801,-6.843 -1.811,-10.645c1.483,-1.885 3.662,-2.802 5.958,-2.763Zm48.847,0.478c1.967,-0.061 3.991,1.128 6.265,3.593c3.177,3.443 3.332,5.592 0.653,8.997c-2.852,3.626 -7.809,3.507 -11.594,-0.278c-3.596,-3.596 -3.57,-6.239 0.098,-9.907c1.553,-1.553 3.048,-2.358 4.578,-2.405l0,0Zm-24.561,0.01c2.262,0.023 4.695,1.073 6.844,3.064c3.248,3.01 3.149,5.755 -0.333,9.237c-3.18,3.18 -6.106,3.523 -9.91,1.163c-5.609,-3.479 -5.778,-8.849 -0.39,-12.379c1.135,-0.744 2.431,-1.099 3.788,-1.085Zm-49.181,0.608c1.996,-0.057 4.122,0.691 5.941,2.256c3.236,2.784 3.382,6.689 0.369,9.896c-2.953,3.143 -7.525,3.141 -10.919,-0.004c-3.072,-2.847 -3.261,-6.132 -0.554,-9.574c1.302,-1.655 3.166,-2.517 5.162,-2.574l0,-0Zm-22.336,5.333c0.646,-0.023 1.34,0.314 2.462,0.895c1.625,0.841 3.298,2.782 3.911,4.54c1.435,4.118 1.432,4.137 -1.43,7.538c-3.067,3.645 -6.888,3.93 -9.888,0.737c-3.113,-3.313 -2.695,-7.023 1.233,-10.951c1.926,-1.926 2.766,-2.725 3.71,-2.758Zm118.362,0.634c1.804,-0.084 3.847,0.984 5.854,3.27c2.9,3.303 3.841,7.352 2.259,9.722c-3.927,5.881 -15.055,-0.054 -13.298,-7.093c0.943,-3.778 2.867,-5.791 5.186,-5.899Zm-86.288,17.848c14.909,0.203 43.953,0.228 55.056,0.048c12.676,-0.205 16.411,1.196 24.406,9.149c8.867,8.821 10.817,17.927 8.971,41.871c-1.818,23.58 -6.285,41.817 -12.686,51.791c-6.641,10.348 -20.616,20.17 -33.388,23.465c-7.275,1.877 -21.209,1.898 -28.099,0.042c-10.529,-2.835 -23.462,-11.355 -30.223,-19.907c-9.287,-11.749 -12.652,-22.619 -15.425,-49.816c-2.805,-27.516 -0.988,-38.054 8.134,-47.147c7.565,-7.542 12.704,-9.64 23.253,-9.497Zm-41.244,5.19c0.001,-0 0.004,0 0.004,0c0.001,0 0.002,0 0.005,0c0.43,0 1.617,0.611 2.638,1.358c1.798,1.315 1.804,1.506 0.18,6.037c-0.922,2.573 -1.674,5.656 -1.671,6.851c0.003,1.195 -0.431,2.174 -0.962,2.174c-0.568,0 -0.965,-3.381 -0.965,-8.21c0,-4.48 0.347,-8.152 0.772,-8.209l0,-0Zm137.789,0.577c0.322,-0.009 0.592,0.068 0.762,0.237c0.452,0.452 0.689,4.039 0.527,7.972c-0.309,7.522 -0.569,7.444 -3.233,-0.977c-1.585,-5.011 -1.58,-5.284 0.114,-6.523c0.608,-0.445 1.292,-0.695 1.83,-0.709l0,0Zm-67.852,13.91c-5.195,0 -7.872,5.983 -4.396,9.825c3.576,3.952 10.798,0.285 9.514,-4.831c-0.916,-3.648 -2.293,-4.994 -5.118,-4.994Zm32.071,8.859c-10.358,-0.185 -21.296,7.066 -24.678,15.235c-3.381,8.169 -3.9,12.89 -2.896,19.933c1.004,7.042 2.215,11.44 0.494,13.443c-2.091,2.434 -9.184,3.286 -11.188,-0.39c-1.288,-2.363 -0.081,-7.047 0.814,-13.182c0.895,-6.135 -0.906,-13.79 -3.048,-18.416c-6.585,-14.219 -22.5,-20.033 -34.751,-13.699c-6.419,3.319 -8.608,5.816 -7.827,8.93c0.938,3.736 4.584,4.165 8.703,1.024c8.099,-6.177 18.705,-4.635 24.953,3.988c3.981,5.494 5.825,12.925 3.394,23.91c-2.159,9.755 -0.756,13.907 5.272,16.891c8.1,4.009 18.02,1.829 21.267,-4.676c1.417,-2.84 1.298,-3.548 0.788,-13.039c-3.194,-13.084 -0.927,-19.185 3.176,-24.675c3.696,-4.946 9.001,-5.776 15.239,-5.781c4.191,-0.003 6.224,0.543 8.977,2.411c4.156,2.821 7.867,3.115 9.12,0.724c2.033,-3.879 -2.46,-8.686 -10.664,-11.411c-2.351,-0.781 -4.752,-1.177 -7.143,-1.22l0,-0Zm44.937,8.606c4.676,-0.107 4.948,4.91 1.094,17.345c-3.999,12.902 -5.645,19.796 -6.428,26.906c-0.442,4.019 -1.306,6.802 -2.471,7.967c-2.024,2.024 -2.582,2.116 -4.843,0.797c-1.45,-0.846 -1.475,-1.421 -0.253,-6.007c2.083,-7.82 3.176,-14.561 4.636,-28.597c1.436,-13.797 2.98,-17.688 7.27,-18.324c0.351,-0.052 0.683,-0.081 0.995,-0.088l-0,0Zm-155.061,0.456c1.021,0.04 1.949,0.683 3.451,2.186c3.077,3.077 3.791,6.119 6.166,26.256c0.846,7.172 2.133,15.304 2.861,18.07c0.918,3.49 1.015,5.338 0.316,6.037c-1.419,1.419 -4.046,1.25 -5.369,-0.344c-0.616,-0.743 -1.789,-5.849 -2.606,-11.348c-0.816,-5.499 -3.219,-15.294 -5.341,-21.766c-4.308,-13.142 -4.539,-17.491 -0.993,-18.792c0.566,-0.208 1.05,-0.315 1.515,-0.297Zm112.584,18.105c-5.115,1.879 -8.707,1.87 -12.141,0.737c-3.433,-1.133 -6.542,-1.131 -6.737,2.818c-0.195,3.95 6.351,6.341 12.956,6.075c6.605,-0.266 14.307,-3.867 13.69,-6.926c-0.617,-3.059 -2.653,-4.584 -7.768,-2.705Zm-60.947,1.046c-4.733,1.537 -7.539,-0.154 -10.94,-1.288c-3.401,-1.133 -6.73,1.525 -6.945,4.611c-0.215,3.086 8.849,6.18 13.959,6.014c5.11,-0.167 13.386,-0.529 12.902,-6.07c-0.484,-5.541 -4.243,-4.806 -8.976,-3.268Zm41.177,40.277c-0.855,-0.033 -2.047,0.256 -4.09,0.847c-7.308,2.113 -12.189,2.266 -19.449,0.615c-8.196,-1.864 -7.384,-1.861 -9.223,-0.022c-3.934,3.934 -0.624,7.376 9.237,9.606l0,0.001c11.7,2.647 25.135,-0.305 26.521,-5.826c0.442,-1.762 0.153,-3.058 -0.924,-4.135c-0.698,-0.698 -1.217,-1.053 -2.073,-1.087l0,0Zm23.723,28.619c0.6,-0.016 0.956,0.318 1.396,0.92c0.986,1.349 0.375,3.398 -3.646,12.227c-6.761,14.845 -14.207,27.744 -15.974,27.672c-0.362,-0.015 -1.579,-1.853 -2.704,-4.085c-1.125,-2.232 -3.192,-4.913 -4.592,-5.959c-2.8,-2.091 -8.519,-2.404 -10.709,-0.586c-1.037,0.86 -2.389,0.77 -5.799,-0.388c-3.899,-1.324 -4.853,-1.341 -7.746,-0.132c-5.876,2.455 -11.557,16.853 -16.417,41.603c-1.356,6.906 -2.669,13.472 -2.917,14.59c-0.314,1.414 -2.145,2.697 -6.021,4.216c-15.329,6.009 -35.51,13.551 -36.258,13.551c-0.464,0 -0.74,-9.485 -0.612,-21.079c0.127,-11.594 -0.084,-21.591 -0.47,-22.216c-1.155,-1.868 -6.194,-1.364 -7.315,0.732c-0.55,1.028 -1.001,5.917 -1.003,10.866c-0.002,4.949 -0.283,15.098 -0.624,22.554l-0.62,13.557l-7.56,3.242c-8.433,3.615 -10.817,5.65 -10.346,8.827c0.682,4.607 2.771,4.487 16.91,-0.961c64.253,-24.758 61.365,-23.32 62.59,-31.163c1.549,-9.915 7.584,-35.333 9.825,-41.377c2.582,-6.966 3.966,-8.305 6.598,-6.381c1.488,1.088 1.547,3.779 0.738,33.583c-1.04,38.312 -0.968,38.027 -11.694,46.655c-17.255,13.881 -51.308,32.919 -68.231,38.146c-7.666,2.368 -17.817,2.574 -22.695,0.461c-7.766,-3.364 -12.856,-11.394 -14.687,-23.169c-1.294,-8.322 -0.22,-25.034 3.069,-47.748c4.795,-33.114 9.719,-47.381 19.768,-57.271c6.929,-6.819 13.735,-10.263 29.814,-15.088c14.983,-4.496 22.011,-7.38 28.251,-11.591l4.269,-2.88l7.015,3.313c10.682,5.045 18.029,6.678 30.196,6.713c9.143,0.027 11.805,-0.355 19.087,-2.742c4.654,-1.526 10.907,-4.245 13.894,-6.044c2.946,-1.774 4.344,-2.546 5.221,-2.569Zm22.689,13.406c3.109,-2.474 4.64,0.349 5.688,2.474c1.048,2.125 -8.923,25.336 -14.153,35.003c-5.23,9.667 -18.934,23.698 -21.706,23.8c-2.773,0.101 -3.956,0.002 -3.693,-3.862c0.264,-3.864 8.788,-8.436 18.907,-25.332c10.12,-16.897 11.847,-29.609 14.956,-32.083Zm-53.237,26.028c0.761,0.021 1.341,0.725 2.385,2.44c1.011,1.662 3.666,10.696 5.9,20.074c2.234,9.378 4.89,20.516 5.902,24.751c1.012,4.235 2.38,8.208 3.04,8.829c1.574,1.481 15.685,10.792 30.289,16.459c17.644,14.471 6.767,16.618 22.901,43.107c-15.342,-4.383 -56.867,-27.879 -66.672,-38.102c-6.411,-6.684 -6.536,-7.482 -6.867,-43.482c-0.294,-31.989 -0.267,-32.552 1.685,-33.596c0.59,-0.316 1.04,-0.492 1.438,-0.48Zm74.879,23.825c1.786,2.796 2.75,31.225 5.27,54.016c-6.463,-1.301 -17.444,-2.288 -24.353,-6.869c11.403,-2.308 14.653,-2.864 14.653,-2.864c0,0 -3.13,-39.41 -2.674,-42.724c0.456,-3.314 5.317,-4.356 7.104,-1.56Z" style="fill:#fff;fill-rule:nonzero;"/><path id="path1-4-9" d="M196.055,398.995c-25.923,1.384 -32.242,4.033 -43.91,9.359c-15.61,7.125 -25.586,20.216 -25.966,37.655c-0.379,17.44 14.031,31.753 23.348,37.825c17.452,11.374 49.994,15.195 79.802,12.879c33.834,-2.629 44.341,-16.127 53.785,-24.187c19.543,14.921 33.533,22.284 49.592,23.566c16.06,1.282 43.356,4.766 79.66,-6.681c16.638,-5.246 31.697,-22.338 31.46,-42.054c-0.086,-7.191 -3.119,-26.111 -17.47,-33.713c-12.741,-6.75 -46.231,-13.132 -50.09,-13.699c-3.859,-0.568 -6.279,-0.806 -6.279,-0.806l-7.82,1.636c-11.785,2.466 -20.616,3.977 -32.933,7.789c-7.645,2.365 -17.424,4.915 -21.732,5.666l0,-0.001c-10.212,1.78 -31.931,2.559 -41.333,1.482c-9.575,-1.097 -20.422,-3.704 -35.924,-8.635c-6.841,-2.176 -15.052,-3.864 -18.803,-4.661c-4.692,-0.998 -8.496,-1.856 -15.387,-3.419Zm175.727,10.941c0.961,0.028 1.971,0.098 3.029,0.236c2.486,6.004 -7.395,5.067 -17.108,9.781c-9.903,4.806 -20.088,13.117 -29.193,17.701c-9.105,4.584 -27.208,13.831 -42.53,15.848c1.336,-8.437 7.808,-24.916 10.163,-26.789c5.018,-4.604 13.172,-1.867 20.124,-3.302c8.941,-2.097 11.112,-3.858 18.75,-6.854c10.044,-3.94 13.277,-5.659 17.895,-6.309c4.618,-0.65 11.536,0 11.536,0c2.003,-0.079 4.45,-0.393 7.334,-0.312Zm-129.076,9.917c1.841,-2.152 6.079,-0.274 5.641,2.517c-0.438,2.79 -10.395,14.461 -26.547,22.528c-18.783,9.381 -47.672,7.256 -35.917,5.512c9.466,-1.983 18.436,-4.561 27.24,-8.733c18.628,-9.002 27.742,-19.672 29.583,-21.823Zm26.295,7.33c-0.306,2.484 -9.741,21.005 -32.827,36.686c-27.862,18.925 -57.916,17.899 -52.727,14.713c4.372,-3.018 20.448,-3.244 49.164,-21.633c13.508,-8.651 24.564,-23.327 30.717,-31.841c1.6,-2.214 5.979,-0.409 5.672,2.076Zm56.392,20.68c2.849,0.176 18.135,7.353 35.858,6.635c17.723,-0.718 28.686,-6.966 31.107,-8.397c7.551,-4.461 -6.337,14.835 -30.73,15.046c-24.392,0.211 -37.599,-6.298 -39.247,-8.222c-1.648,-1.924 0.162,-5.238 3.011,-5.062Z" style="fill:#fff;fill-rule:nonzero;"/></g></svg>