<?xml version="1.0" encoding="UTF-8" standalone="no"?><!DOCTYPE svg PUBLIC "-//W3C//DTD SVG 1.1//EN" "http://www.w3.org/Graphics/SVG/1.1/DTD/svg11.dtd"><svg width="100%" height="100%" viewBox="0 0 432 288" version="1.1" xmlns="http://www.w3.org/2000/svg" xmlns:xlink="http://www.w3.org/1999/xlink" xml:space="preserve" xmlns:serif="http://www.serif.com/" style="fill-rule:evenodd;clip-rule:evenodd;stroke-linecap:round;stroke-linejoin:round;stroke-miterlimit:1.5;"><g><path d="M220.451,190.141c0.718,-0.021 1.436,-0.057 2.154,-0.081c52.811,-1.727 76.111,-19.479 76.111,-19.479c0,0 40.869,7.218 41.347,44.475c0.442,34.41 -63.348,53.485 -119.612,54.589c-48.646,0.954 -128.238,-13.385 -128.516,-53.394c-0.205,-29.548 43.511,-42.424 43.511,-42.424c0,0 26.752,18.018 85.005,16.314Zm59.718,6.862c13.668,-8.452 47.973,6.949 33.493,18.208c-14.879,11.569 -47.162,-9.756 -33.493,-18.208Z" style="fill:#788e6e;stroke:#231f20;stroke-width:0.24px;"/><path d="M220.451,105.773c41.554,-0.243 59.718,-14.858 59.718,-14.858c0,0 33.788,11.019 33.491,28.532c-0.469,27.75 -45.916,51.631 -93.209,51.135c-43.416,-0.455 -95.63,-9.362 -97.329,-45.266c-1.321,-27.926 29.501,-31.155 29.501,-31.155c0,0 22.481,11.877 67.828,11.612Zm28.899,11.059c1.139,10.142 28.928,13.366 30.819,1.172c1.385,-8.933 -31.958,-11.314 -30.819,-1.172Z" style="fill:#788e6e;stroke:#231f20;stroke-width:0.24px;"/><path d="M211.21,18.315c24.503,-0.194 68.71,6.045 68.958,32.884c0.231,24.969 -36.763,34.615 -64.168,34.131c-24.5,-0.433 -75.447,-5.839 -73.469,-34.514c1.71,-24.786 38.722,-32.264 68.679,-32.501Zm19.779,16.498c-7.146,9.199 19.892,18.132 23.027,7.708c2.057,-6.839 -18.79,-13.162 -23.027,-7.708Z" style="fill:#788e6e;stroke:#231f20;stroke-width:0.24px;"/></g></svg>