<?xml version="1.0" encoding="UTF-8" standalone="no"?><!DOCTYPE svg PUBLIC "-//W3C//DTD SVG 1.1//EN" "http://www.w3.org/Graphics/SVG/1.1/DTD/svg11.dtd"><svg width="100%" height="100%" viewBox="0 0 432 288" version="1.1" xmlns="http://www.w3.org/2000/svg" xmlns:xlink="http://www.w3.org/1999/xlink" xml:space="preserve" xmlns:serif="http://www.serif.com/" style="fill-rule:evenodd;clip-rule:evenodd;stroke-linecap:round;stroke-linejoin:round;stroke-miterlimit:1.5;"><path d="M47.691,241.786l312.461,0.829c0,0 1.226,12.221 -6.779,20.87c-9.48,10.244 -17.071,9.321 -17.071,9.321l-258.12,0.884c0,0 -13.229,-0.248 -21.778,-8.894c-11.38,-11.508 -8.712,-23.011 -8.712,-23.011Z" style="fill:#788e6e;stroke:#000;stroke-width:0.24px;"/><path d="M95.78,15.389l1.621,154.533c0,0 1.483,19.965 14.048,31.879c12.581,11.929 30.258,12.428 30.258,12.428l130.219,0.54c0,0 15.189,-1.027 25.936,-12.968c14.589,-16.21 15.129,-28.559 15.129,-28.559l0,-24.614c0,0 33.33,1.996 54.991,-19.23c23.307,-22.84 20.542,-72.488 1.203,-88.073c-24.592,-19.819 -56.734,-15.669 -56.734,-15.669l0,-11.347l-216.671,1.081Zm217.211,31.879l-0,77.239c0,0 48.757,6.136 47.797,-41.578c-0.816,-40.52 -47.797,-35.662 -47.797,-35.662Zm-133.78,-19.757l-0.063,42.469l-21.631,-0.363l0.54,44.922l54.805,0l0.317,-44.559l-21.195,-0.195l-0.221,-42.005l-12.553,-0.269Z" style="fill:#788e6e;stroke:#000;stroke-width:0.24px;"/></svg>