<?xml version="1.0" encoding="UTF-8" standalone="no"?><!DOCTYPE svg PUBLIC "-//W3C//DTD SVG 1.1//EN" "http://www.w3.org/Graphics/SVG/1.1/DTD/svg11.dtd"><svg width="100%" height="100%" viewBox="0 0 922 916" version="1.1" xmlns="http://www.w3.org/2000/svg" xmlns:xlink="http://www.w3.org/1999/xlink" xml:space="preserve" xmlns:serif="http://www.serif.com/" style="fill-rule:evenodd;clip-rule:evenodd;stroke-linejoin:round;stroke-miterlimit:2;"><rect id="Artboard1" x="0" y="0" width="921.129" height="915.96" style="fill:none;"/><g><path d="M553.505,147.148c3.637,53.457 -25.234,102.736 -92.021,103.042c-68.842,0.315 -91.678,-62.384 -89.776,-103.208c1.375,-29.509 43.439,-80.204 94.601,-80.204c32.82,0 84.071,34.46 87.195,80.37l0.001,0Zm58.57,245.91c100.393,103.289 150.591,134.18 231.678,143.834c0,0 32.839,1.199 41.043,9.887c8.205,8.688 8.188,42.242 8.188,42.242c0,45.37 -0.965,47.301 -26.064,47.301c-83.984,-0.965 -196.927,-51.162 -265.465,-117.77l-47.301,-46.335l2.896,58.885l2.896,57.919l96.532,38.613c53.093,22.203 106.185,48.266 118.735,59.85c29.926,27.03 28.96,83.018 -0.965,111.012c-21.238,20.272 -31.855,21.238 -217.198,24.134l-194.996,1.931l0,-25.099c0,-13.515 9.653,-33.786 22.203,-45.37c18.342,-17.376 34.751,-21.238 117.77,-23.168c88.81,-2.896 96.532,-4.827 96.532,-22.203c0,-17.376 -7.723,-19.307 -89.776,-22.203c-65.642,-1.931 -97.497,0.965 -120.666,12.549c-37.647,17.376 -64.677,59.85 -64.677,99.428l0,29.926l-69.504,-4.827c-38.613,-2.896 -80.122,-9.653 -91.705,-15.446c-28.96,-14.48 -43.439,-57.919 -29.926,-94.601c10.619,-32.82 30.89,-45.37 150.591,-91.705l83.984,-31.855l2.896,-61.781l2.896,-60.815l-44.405,44.405c-70.469,70.469 -186.308,124.527 -270.292,124.527c-27.995,0 -28.96,-0.965 -28.96,-48.266c0,-47.301 0.965,-48.266 28.96,-48.266c83.984,0 175.689,-52.127 251.95,-142.869c69.504,-83.984 92.671,-98.144 157.347,-98.463c55.108,-0.271 89.955,34.051 144.798,94.603c0.001,0.001 0.002,-0.002 0.002,-0.002Z" style="fill:#788e6e;fill-rule:nonzero;"/></g></svg>