<?xml version="1.0" encoding="UTF-8" standalone="no"?><!DOCTYPE svg PUBLIC "-//W3C//DTD SVG 1.1//EN" "http://www.w3.org/Graphics/SVG/1.1/DTD/svg11.dtd"><svg width="100%" height="100%" viewBox="0 0 288 288" version="1.1" xmlns="http://www.w3.org/2000/svg" xmlns:xlink="http://www.w3.org/1999/xlink" xml:space="preserve" xmlns:serif="http://www.serif.com/" style="fill-rule:evenodd;clip-rule:evenodd;stroke-linejoin:round;stroke-miterlimit:2;"><path d="M144,61.512c0,0 15.573,-24.597 55.915,-25.27c30.638,-0.511 56.219,15.667 64.085,47.489c11.234,45.447 -14.298,71.745 -14.298,71.745l-105.702,105.447l-104.426,-104.157c0,0 -32.221,-39.852 -13.021,-80.438c10.737,-22.698 27.319,-41.106 61.277,-40.34c33.957,0.766 56.17,25.525 56.17,25.525l0,-0.001Zm10.213,27.581c0,0 9.198,-28.095 46.979,-28.851c27.318,-0.547 39.294,24.701 41.872,41.362c3.319,21.447 -9.447,36.511 -9.447,36.511l-89.617,90.894l-86.298,-89.106c0,0 -16.051,-21.097 -11.745,-44.426c3.064,-16.596 15.317,-34.582 41.872,-34.979c34.213,-0.511 43.149,28.851 43.149,28.851l23.234,-0.255l0.001,-0.001Z" style="fill:#788e6e;"/></svg>