<?xml version="1.0" encoding="UTF-8" standalone="no"?><!DOCTYPE svg PUBLIC "-//W3C//DTD SVG 1.1//EN" "http://www.w3.org/Graphics/SVG/1.1/DTD/svg11.dtd"><svg width="100%" height="100%" viewBox="0 0 868 868" version="1.1" xmlns="http://www.w3.org/2000/svg" xmlns:xlink="http://www.w3.org/1999/xlink" xml:space="preserve" xmlns:serif="http://www.serif.com/" style="fill-rule:evenodd;clip-rule:evenodd;stroke-linejoin:round;stroke-miterlimit:2;"><path d="M187.596,308.095l508.795,-1.022c0,0 32.337,4.974 32.353,37.121c0.016,32.829 -29.969,37.461 -29.969,37.461l-161.765,18.731l0.341,91.61l115.79,66.75c0,0 9.775,3.956 20.434,19.412c8.688,12.598 7.152,35.759 7.152,35.759l0.681,107.276c0,0 -3.183,38.831 -44.273,39.164c-39.104,0.318 -42.229,-37.802 -42.229,-37.802l-7.833,-84.799l-131.456,-66.068l-229.196,183.902c0,0 -27.591,17.151 -49.381,-7.492c-20.057,-22.683 -3.406,-47.678 -3.406,-47.678l174.707,-184.583l-1.362,-115.109l-164.83,-18.731c0,0 -27.972,-10.05 -26.223,-38.143c2.07,-33.241 31.672,-35.759 31.672,-35.759Zm253.035,-24.861c40.323,0.985 91.835,-26.002 97.059,-86.843c5.357,-62.378 -47.394,-101.714 -93.654,-103.87c-32.756,-1.527 -96.162,27.43 -97.059,96.378c-0.796,61.117 53.701,93.359 93.654,94.335Z" style="fill:#788e6e;"/></svg>