<?xml version="1.0" encoding="UTF-8" standalone="no"?><!DOCTYPE svg PUBLIC "-//W3C//DTD SVG 1.1//EN" "http://www.w3.org/Graphics/SVG/1.1/DTD/svg11.dtd"><svg width="100%" height="100%" viewBox="0 0 288 288" version="1.1" xmlns="http://www.w3.org/2000/svg" xmlns:xlink="http://www.w3.org/1999/xlink" xml:space="preserve" xmlns:serif="http://www.serif.com/" style="fill-rule:evenodd;clip-rule:evenodd;stroke-linejoin:round;stroke-miterlimit:2;"><path d="M70.355,11.919l40.113,-0.14c0,0 4.527,0.831 8.118,3.086c4.943,3.103 6.33,6.373 6.33,6.373l22.468,58.925l37.093,52.997c0,0 5.245,8.915 10.013,18.172c4.769,9.257 6.889,20.461 6.889,20.461l21.521,101.783c0,0 0.436,1.377 -0.852,3.017c-1.005,1.281 -2.087,1.523 -2.087,1.523l-17.467,-0.075c0,0 -0.503,0.493 -1.827,-0.486c-1.627,-1.202 -1.885,-2.453 -1.885,-2.453l-38.431,-94.113l-36.187,93.552c0,0 -0.056,0.836 -1.833,2.241c-0.883,0.698 -1.738,1.044 -1.738,1.044l-18.466,-0c0,0 -0.554,0.516 -1.957,-1.027c-1.403,-1.543 -0.691,-3.239 -0.691,-3.239l25.25,-105.402c0,0 1.067,-1.047 -1.317,0.356c-2.384,1.403 -3.777,0.975 -3.777,0.975l-31.742,-0.134c0,0 -5.243,-0.798 -7.02,-2.662c-3.919,-4.111 -3.695,-6.883 -3.695,-6.883l0.14,-42.498c0,0 0.482,-6.506 4.673,-13.02c5.549,-8.623 27.544,-18.075 30.932,-28.568c0.78,-2.416 1.432,-9.743 -0.252,-14.671c-3.844,-11.253 -9.132,-24.896 -9.132,-24.896l-33.692,0.068c0,0 -9.929,-3.721 -9.162,-12.121c0.992,-10.857 9.668,-12.186 9.668,-12.186Zm11.333,29.115c13.952,0.474 24.573,11.6 24.443,25.167c-0.117,12.215 -9.466,23.846 -25.061,24.034c-14.56,0.175 -24.771,-12.21 -24.58,-24.89c0.213,-14.108 12.749,-24.733 25.198,-24.311Zm20.516,85.935l-0.199,17.833l13.886,-0.14l-13.687,-17.693Z" style="fill:#788e6e;"/></svg>