<?xml version="1.0" encoding="UTF-8" standalone="no"?><!DOCTYPE svg PUBLIC "-//W3C//DTD SVG 1.1//EN" "http://www.w3.org/Graphics/SVG/1.1/DTD/svg11.dtd"><svg width="100%" height="100%" viewBox="0 0 288 288" version="1.1" xmlns="http://www.w3.org/2000/svg" xmlns:xlink="http://www.w3.org/1999/xlink" xml:space="preserve" xmlns:serif="http://www.serif.com/" style="fill-rule:evenodd;clip-rule:evenodd;stroke-linejoin:round;stroke-miterlimit:2;"><path d="M126.28,58.82c16.289,-0.407 24.273,-12.423 24.119,-23.63c-0.13,-9.436 -7.876,-23.013 -23.896,-23.544c-12.413,-0.412 -24.448,9.968 -24.186,23.407c0.28,14.35 10.04,24.115 23.963,23.767Zm-35.376,49.276c0,0 1.865,-13.515 12.103,-22.617c10.238,-9.102 31.152,-12.292 45.934,1.254c11.461,10.503 9.539,26.327 9.539,26.327c0,0 18.033,0.989 27.881,13.063c11.169,13.694 10.734,26.103 10.734,26.103l-0.176,55.43c0,0 -0.71,3.747 -2.902,5.901c-2.715,2.668 -6.852,2.658 -6.852,2.658l-40.757,-0.072l0,51.374c0,0 -1.912,9.336 -12.733,8.826c-11.945,-0.563 -12.069,-9.273 -12.069,-9.273l0.081,-51.098l-21.12,-0.019c0,0 -3.419,0.089 -6.325,-2.482c-3.458,-3.06 -2.877,-5.393 -2.877,-5.393l-0.461,-99.983l0,0.001Z" style="fill:#788e6e;"/></svg>