<?xml version="1.0" encoding="UTF-8" standalone="no"?><!DOCTYPE svg PUBLIC "-//W3C//DTD SVG 1.1//EN" "http://www.w3.org/Graphics/SVG/1.1/DTD/svg11.dtd"><svg width="100%" height="100%" viewBox="0 0 288 288" version="1.1" xmlns="http://www.w3.org/2000/svg" xmlns:xlink="http://www.w3.org/1999/xlink" xml:space="preserve" xmlns:serif="http://www.serif.com/" style="fill-rule:evenodd;clip-rule:evenodd;stroke-linecap:round;stroke-linejoin:round;stroke-miterlimit:1.5;"><path d="M12.563,263.745l260.832,0.255c0,0 5.114,-22.631 -17.565,-40.34c-21.768,-16.999 -44.936,-10.979 -78.128,-28.596c-10.919,-5.795 -5.872,-44.936 -5.872,-44.936c0,0 21.426,-8.989 28.596,-31.404c6.002,-18.765 10.137,-48.71 -6.894,-70.979c-12.532,-16.388 -26.304,-25.81 -50.043,-25.787c-28.482,0.028 -45.191,12.766 -56.17,33.191c-8.409,15.644 -9.702,37.532 -1.277,61.532c8.056,22.948 28.596,32.681 28.596,32.681c0,0 5.617,35.234 -4.085,45.191c-9.702,9.957 -52.085,12 -71.745,23.745c-29.125,17.399 -26.246,45.447 -26.246,45.447Z" style="fill:#788e6e;stroke:#000;stroke-width:0.24px;"/></svg>