<?xml version="1.0" encoding="UTF-8" standalone="no"?><!DOCTYPE svg PUBLIC "-//W3C//DTD SVG 1.1//EN" "http://www.w3.org/Graphics/SVG/1.1/DTD/svg11.dtd"><svg width="100%" height="100%" viewBox="0 0 288 288" version="1.1" xmlns="http://www.w3.org/2000/svg" xmlns:xlink="http://www.w3.org/1999/xlink" xml:space="preserve" xmlns:serif="http://www.serif.com/" style="fill-rule:evenodd;clip-rule:evenodd;stroke-linejoin:round;stroke-miterlimit:2;"><path d="M35.523,247.224l213.111,0.208c0,0 4.178,-18.49 -14.351,-32.959c-17.785,-13.889 -36.715,-8.97 -63.834,-23.364c-8.921,-4.735 -4.798,-36.715 -4.798,-36.715c0,0 17.506,-7.344 23.364,-25.658c4.904,-15.332 8.282,-39.798 -5.633,-57.993c-10.239,-13.39 -21.491,-21.088 -40.887,-21.069c-23.271,0.023 -36.923,10.43 -45.893,27.118c-6.871,12.782 -7.927,30.665 -1.043,50.274c6.582,18.749 23.364,26.702 23.364,26.702c0,0 4.589,28.788 -3.338,36.923c-7.927,8.135 -42.556,9.805 -58.619,19.401c-23.796,14.216 -21.444,37.132 -21.444,37.132l0.001,0Z" style="fill:#788e6e;"/></svg>