<?xml version="1.0" encoding="UTF-8" standalone="no"?><!DOCTYPE svg PUBLIC "-//W3C//DTD SVG 1.1//EN" "http://www.w3.org/Graphics/SVG/1.1/DTD/svg11.dtd"><svg width="100%" height="100%" viewBox="0 0 288 288" version="1.1" xmlns="http://www.w3.org/2000/svg" xmlns:xlink="http://www.w3.org/1999/xlink" xml:space="preserve" xmlns:serif="http://www.serif.com/" style="fill-rule:evenodd;clip-rule:evenodd;stroke-linejoin:round;stroke-miterlimit:2;"><path d="M99.211,121.914c0,0 8.23,-33.845 18.192,-55.024c10.262,-21.816 29.281,-43.076 29.281,-43.076c0,0 18.913,21.816 29.343,45.613c8.476,19.338 16.227,53.65 16.227,53.65c0,0 19.464,-8.854 29.829,-11.136c23.627,-5.202 44.282,-4.388 44.282,-4.388c0,0 6.801,54.424 -23.69,100.233c-12.234,18.379 -31.336,34.211 -47.937,41.922c-15.695,7.29 -45.766,15.371 -45.766,15.371c0,0 -26.712,-3.895 -46.559,-12.959c-17.781,-8.12 -47.734,-31.644 -57.183,-48.207c-26.339,-46.169 -19.424,-97.159 -19.424,-97.159c0,0 24.412,-0.375 42.306,3.792c20.887,4.864 31.098,11.367 31.098,11.367l0.001,0.001Zm46.966,-56.649c0,0 -10.264,15.285 -15.45,31.641c-5.186,16.356 -10.084,40.189 -10.084,40.189c0,0 6.845,4.203 13.203,10.336c7.446,7.183 12.153,15.828 12.153,15.828c0,0 6.812,-11.365 13.504,-17.298c7.671,-6.801 11.098,-8.702 11.098,-8.702c0,0 -4.98,-26.262 -8.849,-38.699c-4.513,-14.51 -15.576,-33.294 -15.576,-33.294l0.001,-0.001Zm42.054,87.91c31.716,-20.739 52.732,-20.889 52.732,-20.889c0,0 3.187,26.897 -18.672,62.906c-15.054,24.799 -53.977,40.476 -53.977,40.476c0,0 0.12,-12.524 -2.941,-26.339c-3.062,-13.819 -5.869,-22.12 -5.869,-22.12c0,0 12.337,-23.317 28.728,-34.035l-0.001,0.001Zm-44.231,85.228c0,0 -0.238,-37.163 -24.174,-69.078c-23.936,-31.915 -69.285,-37.039 -69.285,-37.039c0,0 -6.032,37.904 21.778,68.732c37.17,41.203 71.681,37.385 71.681,37.385Z" style="fill:#788e6e;"/></svg>